<?xml version="1.0" standalone="no"?>
<!DOCTYPE svg PUBLIC "-//W3C//DTD SVG 20010904//EN"
 "http://www.w3.org/TR/2001/REC-SVG-20010904/DTD/svg10.dtd">
<svg version="1.0" xmlns="http://www.w3.org/2000/svg"
 width="1024.000000pt" height="1024.000000pt" viewBox="0 0 1024.000000 1024.000000"
 preserveAspectRatio="xMidYMid meet">
<metadata>
Created by potrace 1.16, written by Peter Selinger 2001-2019
</metadata>
<g transform="translate(0.000000,1024.000000) scale(0.100000,-0.100000)"
fill="#000000" stroke="none">
<path d="M4977 9896 c-31 -13 -67 -31 -80 -39 -29 -19 -4397 -3824 -4460
-3886 -26 -25 -62 -75 -80 -111 -30 -61 -32 -70 -32 -180 0 -106 2 -120 28
-172 41 -84 107 -152 185 -190 63 -31 73 -33 177 -33 91 0 118 4 155 21 25 11
122 88 215 170 94 82 823 718 1620 1414 798 695 1633 1424 1857 1619 224 196
429 367 455 381 59 31 139 33 200 4 36 -16 1680 -1442 3613 -3134 293 -256
505 -435 535 -450 44 -22 62 -25 160 -25 105 0 114 2 177 33 116 57 199 171
216 298 18 140 -24 268 -120 360 -29 28 -771 677 -1648 1440 -877 764 -1768
1540 -1979 1724 -212 184 -479 418 -595 519 -116 101 -227 193 -246 205 -96
61 -248 75 -353 32z"/>
<path d="M2325 5417 c-22 -13 -49 -40 -62 -62 l-23 -40 0 -1735 0 -1736 51
-49 c59 -58 142 -178 159 -233 7 -20 15 -40 19 -44 3 -4 601 -8 1329 -10
l1322 -3 0 1900 0 1901 -22 44 c-17 33 -35 51 -68 68 l-44 22 -1311 0 -1310 0
-40 -23z m2286 -1749 c51 -15 114 -69 141 -122 31 -57 31 -155 0 -212 -114
-218 -435 -152 -450 92 -4 54 0 72 22 118 53 108 171 159 287 124z"/>
<path d="M6092 2863 c-18 -9 -45 -32 -60 -51 l-27 -35 0 -217 0 -217 27 -35
c55 -72 -16 -68 1088 -68 1104 0 1033 -4 1088 68 l27 35 0 217 0 217 -27 35
c-55 72 16 68 -1090 68 -899 0 -996 -2 -1026 -17z"/>
<path d="M5764 923 c3 -21 6 -75 6 -120 l0 -83 1930 0 1931 0 24 -25 c21 -20
25 -34 25 -80 l0 -55 -1960 0 c-1736 0 -1960 2 -1960 15 0 13 -144 15 -1234
15 l-1234 0 -45 -92 c-25 -51 -62 -112 -82 -136 l-37 -42 3396 0 3396 0 0 186
c0 202 -6 240 -52 315 -40 66 -97 106 -183 128 -27 8 -669 11 -1984 11 l-1944
0 7 -37z"/>
</g>
</svg>
